<mxfile host="65bd71144e">
    <diagram id="uFBe2H4pg3KC3UbeyhN0" name="Page-1">
        <mxGraphModel dx="581" dy="700" grid="1" gridSize="10" guides="1" tooltips="1" connect="1" arrows="1" fold="1" page="1" pageScale="1" pageWidth="850" pageHeight="1100" math="0" shadow="0">
            <root>
                <mxCell id="0"/>
                <mxCell id="1" parent="0"/>
                <mxCell id="121" style="edgeStyle=orthogonalEdgeStyle;html=1;exitX=0;exitY=0.5;exitDx=0;exitDy=0;entryX=0.5;entryY=0;entryDx=0;entryDy=0;fontSize=23;endArrow=open;endFill=0;endSize=13;shadow=1;" parent="1" source="2" target="6" edge="1">
                    <mxGeometry relative="1" as="geometry"/>
                </mxCell>
                <mxCell id="2" value="p" style="rounded=0;whiteSpace=wrap;html=1;fontSize=21;verticalAlign=middle;shadow=1;" parent="1" vertex="1">
                    <mxGeometry x="178" y="25" width="150" height="35" as="geometry"/>
                </mxCell>
                <mxCell id="154" style="edgeStyle=orthogonalEdgeStyle;html=1;exitX=1;exitY=0.5;exitDx=0;exitDy=0;entryX=0.5;entryY=0;entryDx=0;entryDy=0;fontSize=23;endArrow=open;endFill=0;endSize=13;shadow=1;" parent="1" source="4" target="171" edge="1">
                    <mxGeometry relative="1" as="geometry">
                        <Array as="points">
                            <mxPoint x="480" y="40"/>
                            <mxPoint x="625" y="40"/>
                        </Array>
                    </mxGeometry>
                </mxCell>
                <mxCell id="4" value="d" style="rounded=0;whiteSpace=wrap;html=1;fontSize=21;verticalAlign=middle;shadow=1;" parent="1" vertex="1">
                    <mxGeometry x="328" y="25" width="152" height="35" as="geometry"/>
                </mxCell>
                <mxCell id="122" value="h" style="edgeStyle=orthogonalEdgeStyle;html=1;exitX=0.5;exitY=1;exitDx=0;exitDy=0;entryX=0;entryY=0.5;entryDx=0;entryDy=0;fontSize=23;endArrow=open;endFill=0;endSize=13;shadow=1;" parent="1" source="6" target="7" edge="1">
                    <mxGeometry x="0.3861" y="15" relative="1" as="geometry">
                        <mxPoint as="offset"/>
                    </mxGeometry>
                </mxCell>
                <mxCell id="6" value="Hash&lt;br style=&quot;font-size: 23px;&quot;&gt;Function" style="ellipse;whiteSpace=wrap;html=1;aspect=fixed;fontSize=23;fillColor=#fa6800;strokeColor=#C73500;fontColor=#000000;shadow=1;" parent="1" vertex="1">
                    <mxGeometry x="2.130000000000001" y="130" width="100" height="100" as="geometry"/>
                </mxCell>
                <mxCell id="7" value="" style="rounded=1;whiteSpace=wrap;html=1;fontSize=29;verticalAlign=top;arcSize=6;shadow=1;" parent="1" vertex="1">
                    <mxGeometry x="170" y="100" width="110" height="350" as="geometry"/>
                </mxCell>
                <mxCell id="8" style="edgeStyle=none;html=1;exitX=1;exitY=0.5;exitDx=0;exitDy=0;entryX=0;entryY=0.5;entryDx=0;entryDy=0;fontSize=30;endArrow=open;endFill=0;endSize=13;shadow=1;" parent="1" source="9" target="100" edge="1">
                    <mxGeometry relative="1" as="geometry">
                        <mxPoint x="259.55999999999995" y="155" as="targetPoint"/>
                    </mxGeometry>
                </mxCell>
                <mxCell id="9" value="" style="rounded=0;whiteSpace=wrap;html=1;fontSize=21;verticalAlign=bottom;fillColor=#60a917;strokeColor=#2D7600;fontColor=#ffffff;shadow=1;" parent="1" vertex="1">
                    <mxGeometry x="188.25" y="140" width="30" height="30" as="geometry"/>
                </mxCell>
                <mxCell id="28" value="" style="rounded=1;whiteSpace=wrap;html=1;fontSize=29;verticalAlign=top;arcSize=6;shadow=1;" parent="1" vertex="1">
                    <mxGeometry x="250" y="250" width="410" height="50" as="geometry"/>
                </mxCell>
                <mxCell id="29" value="" style="rounded=0;whiteSpace=wrap;html=1;fontSize=21;verticalAlign=bottom;fillColor=#1ba1e2;strokeColor=#006EAF;fontColor=#ffffff;shadow=1;" parent="1" vertex="1">
                    <mxGeometry x="258.31" y="260" width="30" height="30" as="geometry"/>
                </mxCell>
                <mxCell id="30" value="" style="rounded=0;whiteSpace=wrap;html=1;fontSize=21;verticalAlign=bottom;fillColor=#1ba1e2;strokeColor=#006EAF;fontColor=#ffffff;shadow=1;" parent="1" vertex="1">
                    <mxGeometry x="288.31" y="260" width="30" height="30" as="geometry"/>
                </mxCell>
                <mxCell id="31" value="" style="rounded=0;whiteSpace=wrap;html=1;fontSize=21;verticalAlign=bottom;fillColor=#1ba1e2;strokeColor=#006EAF;fontColor=#ffffff;shadow=1;" parent="1" vertex="1">
                    <mxGeometry x="318.31" y="260" width="30" height="30" as="geometry"/>
                </mxCell>
                <mxCell id="37" style="edgeStyle=none;html=1;exitX=1;exitY=0.5;exitDx=0;exitDy=0;entryX=0;entryY=0.5;entryDx=0;entryDy=0;fontSize=23;endArrow=open;endFill=0;endSize=13;shadow=1;" parent="1" source="32" target="33" edge="1">
                    <mxGeometry relative="1" as="geometry"/>
                </mxCell>
                <mxCell id="32" value="" style="ellipse;whiteSpace=wrap;html=1;aspect=fixed;fontSize=23;fillColor=#000000;shadow=1;" parent="1" vertex="1">
                    <mxGeometry x="325.81" y="267.5" width="15" height="15" as="geometry"/>
                </mxCell>
                <mxCell id="33" value="" style="rounded=0;whiteSpace=wrap;html=1;fontSize=21;verticalAlign=bottom;fillColor=#1ba1e2;strokeColor=#006EAF;fontColor=#ffffff;shadow=1;" parent="1" vertex="1">
                    <mxGeometry x="380" y="260" width="30" height="30" as="geometry"/>
                </mxCell>
                <mxCell id="34" value="" style="rounded=0;whiteSpace=wrap;html=1;fontSize=21;verticalAlign=bottom;fillColor=#1ba1e2;strokeColor=#006EAF;fontColor=#ffffff;shadow=1;" parent="1" vertex="1">
                    <mxGeometry x="410" y="260" width="30" height="30" as="geometry"/>
                </mxCell>
                <mxCell id="35" value="" style="rounded=0;whiteSpace=wrap;html=1;fontSize=21;verticalAlign=bottom;fillColor=#1ba1e2;strokeColor=#006EAF;fontColor=#ffffff;shadow=1;" parent="1" vertex="1">
                    <mxGeometry x="440" y="260" width="30" height="30" as="geometry"/>
                </mxCell>
                <mxCell id="42" style="edgeStyle=none;html=1;exitX=1;exitY=0.5;exitDx=0;exitDy=0;entryX=0;entryY=0.5;entryDx=0;entryDy=0;fontSize=23;endArrow=open;endFill=0;endSize=13;shadow=1;" parent="1" source="36" target="38" edge="1">
                    <mxGeometry relative="1" as="geometry"/>
                </mxCell>
                <mxCell id="36" value="" style="ellipse;whiteSpace=wrap;html=1;aspect=fixed;fontSize=23;fillColor=#000000;shadow=1;" parent="1" vertex="1">
                    <mxGeometry x="447.5" y="267.5" width="15" height="15" as="geometry"/>
                </mxCell>
                <mxCell id="38" value="p" style="rounded=0;whiteSpace=wrap;html=1;fontSize=21;verticalAlign=bottom;fillColor=#1ba1e2;strokeColor=#006EAF;fontColor=#ffffff;shadow=1;" parent="1" vertex="1">
                    <mxGeometry x="500" y="260" width="30" height="30" as="geometry"/>
                </mxCell>
                <mxCell id="148" style="edgeStyle=orthogonalEdgeStyle;html=1;exitX=0.5;exitY=0;exitDx=0;exitDy=0;entryX=0.5;entryY=1;entryDx=0;entryDy=0;fontSize=23;endArrow=open;endFill=0;endSize=13;shadow=1;" parent="1" source="39" edge="1" target="170">
                    <mxGeometry relative="1" as="geometry">
                        <mxPoint x="701" y="177.5" as="targetPoint"/>
                        <Array as="points">
                            <mxPoint x="545" y="178"/>
                            <mxPoint x="474" y="178"/>
                        </Array>
                    </mxGeometry>
                </mxCell>
                <mxCell id="39" value="f" style="rounded=0;whiteSpace=wrap;html=1;fontSize=21;verticalAlign=bottom;fillColor=#1ba1e2;strokeColor=#006EAF;fontColor=#ffffff;shadow=1;" parent="1" vertex="1">
                    <mxGeometry x="530" y="260" width="30" height="30" as="geometry"/>
                </mxCell>
                <mxCell id="40" value="" style="rounded=0;whiteSpace=wrap;html=1;fontSize=21;verticalAlign=bottom;fillColor=#1ba1e2;strokeColor=#006EAF;fontColor=#ffffff;shadow=1;" parent="1" vertex="1">
                    <mxGeometry x="560" y="260" width="30" height="30" as="geometry"/>
                </mxCell>
                <mxCell id="69" style="edgeStyle=none;html=1;exitX=1;exitY=0.5;exitDx=0;exitDy=0;entryX=0;entryY=0.5;entryDx=0;entryDy=0;fontSize=23;endArrow=open;endFill=0;endSize=13;shadow=1;" parent="1" source="41" target="68" edge="1">
                    <mxGeometry relative="1" as="geometry"/>
                </mxCell>
                <mxCell id="41" value="" style="ellipse;whiteSpace=wrap;html=1;aspect=fixed;fontSize=23;fillColor=#000000;shadow=1;" parent="1" vertex="1">
                    <mxGeometry x="567.5" y="267.5" width="15" height="15" as="geometry"/>
                </mxCell>
                <mxCell id="68" value="&lt;span style=&quot;color: rgb(32, 33, 34); font-family: sans-serif; font-size: 16.8px;&quot;&gt;âœ–&lt;/span&gt;" style="rounded=0;whiteSpace=wrap;html=1;fontSize=21;verticalAlign=bottom;fillColor=#60a917;strokeColor=#2D7600;fontColor=#ffffff;shadow=1;" parent="1" vertex="1">
                    <mxGeometry x="620" y="260" width="30" height="30" as="geometry"/>
                </mxCell>
                <mxCell id="70" value="" style="rounded=1;whiteSpace=wrap;html=1;fontSize=29;verticalAlign=top;arcSize=6;shadow=1;" parent="1" vertex="1">
                    <mxGeometry x="250" y="370" width="290" height="50" as="geometry"/>
                </mxCell>
                <mxCell id="71" value="" style="rounded=0;whiteSpace=wrap;html=1;fontSize=21;verticalAlign=bottom;fillColor=#1ba1e2;strokeColor=#006EAF;fontColor=#ffffff;shadow=1;" parent="1" vertex="1">
                    <mxGeometry x="258.31" y="380" width="30" height="30" as="geometry"/>
                </mxCell>
                <mxCell id="72" value="" style="rounded=0;whiteSpace=wrap;html=1;fontSize=21;verticalAlign=bottom;fillColor=#1ba1e2;strokeColor=#006EAF;fontColor=#ffffff;shadow=1;" parent="1" vertex="1">
                    <mxGeometry x="288.31" y="380" width="30" height="30" as="geometry"/>
                </mxCell>
                <mxCell id="73" value="" style="rounded=0;whiteSpace=wrap;html=1;fontSize=21;verticalAlign=bottom;fillColor=#1ba1e2;strokeColor=#006EAF;fontColor=#ffffff;shadow=1;" parent="1" vertex="1">
                    <mxGeometry x="318.31" y="380" width="30" height="30" as="geometry"/>
                </mxCell>
                <mxCell id="74" style="edgeStyle=none;html=1;exitX=1;exitY=0.5;exitDx=0;exitDy=0;entryX=0;entryY=0.5;entryDx=0;entryDy=0;fontSize=23;endArrow=open;endFill=0;endSize=13;shadow=1;" parent="1" source="75" target="76" edge="1">
                    <mxGeometry relative="1" as="geometry"/>
                </mxCell>
                <mxCell id="75" value="" style="ellipse;whiteSpace=wrap;html=1;aspect=fixed;fontSize=23;fillColor=#000000;shadow=1;" parent="1" vertex="1">
                    <mxGeometry x="325.81" y="387.5" width="15" height="15" as="geometry"/>
                </mxCell>
                <mxCell id="76" value="" style="rounded=0;whiteSpace=wrap;html=1;fontSize=21;verticalAlign=bottom;fillColor=#1ba1e2;strokeColor=#006EAF;fontColor=#ffffff;shadow=1;" parent="1" vertex="1">
                    <mxGeometry x="380" y="380" width="30" height="30" as="geometry"/>
                </mxCell>
                <mxCell id="77" value="" style="rounded=0;whiteSpace=wrap;html=1;fontSize=21;verticalAlign=bottom;fillColor=#1ba1e2;strokeColor=#006EAF;fontColor=#ffffff;shadow=1;" parent="1" vertex="1">
                    <mxGeometry x="410" y="380" width="30" height="30" as="geometry"/>
                </mxCell>
                <mxCell id="78" value="" style="rounded=0;whiteSpace=wrap;html=1;fontSize=21;verticalAlign=bottom;fillColor=#1ba1e2;strokeColor=#006EAF;fontColor=#ffffff;shadow=1;" parent="1" vertex="1">
                    <mxGeometry x="440" y="380" width="30" height="30" as="geometry"/>
                </mxCell>
                <mxCell id="79" style="edgeStyle=none;html=1;exitX=1;exitY=0.5;exitDx=0;exitDy=0;entryX=0;entryY=0.5;entryDx=0;entryDy=0;fontSize=23;endArrow=open;endFill=0;endSize=13;shadow=1;" parent="1" source="80" target="86" edge="1">
                    <mxGeometry relative="1" as="geometry">
                        <mxPoint x="500" y="395" as="targetPoint"/>
                    </mxGeometry>
                </mxCell>
                <mxCell id="80" value="" style="ellipse;whiteSpace=wrap;html=1;aspect=fixed;fontSize=23;fillColor=#000000;shadow=1;" parent="1" vertex="1">
                    <mxGeometry x="447.5" y="387.5" width="15" height="15" as="geometry"/>
                </mxCell>
                <mxCell id="86" value="&lt;span style=&quot;color: rgb(32, 33, 34); font-family: sans-serif; font-size: 16.8px;&quot;&gt;âœ–&lt;/span&gt;" style="rounded=0;whiteSpace=wrap;html=1;fontSize=21;verticalAlign=bottom;fillColor=#60a917;strokeColor=#2D7600;fontColor=#ffffff;shadow=1;" parent="1" vertex="1">
                    <mxGeometry x="500" y="380" width="30" height="30" as="geometry"/>
                </mxCell>
                <mxCell id="87" value="" style="rounded=1;whiteSpace=wrap;html=1;fontSize=29;verticalAlign=top;arcSize=6;shadow=1;" parent="1" vertex="1">
                    <mxGeometry x="250" y="190" width="170" height="50" as="geometry"/>
                </mxCell>
                <mxCell id="88" value="" style="rounded=0;whiteSpace=wrap;html=1;fontSize=21;verticalAlign=bottom;fillColor=#1ba1e2;strokeColor=#006EAF;fontColor=#ffffff;shadow=1;" parent="1" vertex="1">
                    <mxGeometry x="258.31" y="200" width="30" height="30" as="geometry"/>
                </mxCell>
                <mxCell id="89" value="" style="rounded=0;whiteSpace=wrap;html=1;fontSize=21;verticalAlign=bottom;fillColor=#1ba1e2;strokeColor=#006EAF;fontColor=#ffffff;shadow=1;" parent="1" vertex="1">
                    <mxGeometry x="288.31" y="200" width="30" height="30" as="geometry"/>
                </mxCell>
                <mxCell id="99" value="" style="edgeStyle=none;html=1;fontSize=23;endArrow=open;endFill=0;endSize=13;shadow=1;" parent="1" source="90" target="98" edge="1">
                    <mxGeometry relative="1" as="geometry"/>
                </mxCell>
                <mxCell id="90" value="" style="rounded=0;whiteSpace=wrap;html=1;fontSize=21;verticalAlign=bottom;fillColor=#1ba1e2;strokeColor=#006EAF;fontColor=#ffffff;shadow=1;" parent="1" vertex="1">
                    <mxGeometry x="318.31" y="200" width="30" height="30" as="geometry"/>
                </mxCell>
                <mxCell id="91" style="edgeStyle=none;html=1;exitX=1;exitY=0.5;exitDx=0;exitDy=0;entryX=0;entryY=0.5;entryDx=0;entryDy=0;fontSize=23;endArrow=open;endFill=0;endSize=13;shadow=1;" parent="1" source="92" target="98" edge="1">
                    <mxGeometry relative="1" as="geometry">
                        <mxPoint x="380" y="215" as="targetPoint"/>
                    </mxGeometry>
                </mxCell>
                <mxCell id="92" value="" style="ellipse;whiteSpace=wrap;html=1;aspect=fixed;fontSize=23;fillColor=#000000;shadow=1;" parent="1" vertex="1">
                    <mxGeometry x="325.81" y="207.5" width="15" height="15" as="geometry"/>
                </mxCell>
                <mxCell id="98" value="&lt;span style=&quot;color: rgb(32, 33, 34); font-family: sans-serif; font-size: 16.8px;&quot;&gt;âœ–&lt;/span&gt;" style="rounded=0;whiteSpace=wrap;html=1;fontSize=21;verticalAlign=bottom;fillColor=#60a917;strokeColor=#2D7600;fontColor=#ffffff;shadow=1;" parent="1" vertex="1">
                    <mxGeometry x="380" y="200" width="30" height="30" as="geometry"/>
                </mxCell>
                <mxCell id="100" value="" style="rounded=1;whiteSpace=wrap;html=1;fontSize=29;verticalAlign=top;arcSize=6;shadow=1;" parent="1" vertex="1">
                    <mxGeometry x="250" y="130" width="50" height="50" as="geometry"/>
                </mxCell>
                <mxCell id="107" value="&lt;span style=&quot;color: rgb(32, 33, 34); font-family: sans-serif; font-size: 16.8px;&quot;&gt;âœ–&lt;/span&gt;" style="rounded=0;whiteSpace=wrap;html=1;fontSize=21;verticalAlign=bottom;fillColor=#60a917;strokeColor=#2D7600;fontColor=#ffffff;shadow=1;" parent="1" vertex="1">
                    <mxGeometry x="258.31" y="140" width="30" height="30" as="geometry"/>
                </mxCell>
                <mxCell id="108" value="" style="rounded=1;whiteSpace=wrap;html=1;fontSize=29;verticalAlign=top;arcSize=6;shadow=1;" parent="1" vertex="1">
                    <mxGeometry x="250" y="310" width="50" height="50" as="geometry"/>
                </mxCell>
                <mxCell id="109" value="&lt;span style=&quot;color: rgb(32, 33, 34); font-family: sans-serif; font-size: 16.8px;&quot;&gt;âœ–&lt;/span&gt;" style="rounded=0;whiteSpace=wrap;html=1;fontSize=21;verticalAlign=bottom;fillColor=#60a917;strokeColor=#2D7600;fontColor=#ffffff;shadow=1;" parent="1" vertex="1">
                    <mxGeometry x="258.30999999999995" y="320" width="30" height="30" as="geometry"/>
                </mxCell>
                <mxCell id="110" value="..." style="text;html=1;strokeColor=none;fillColor=none;align=center;verticalAlign=bottom;whiteSpace=wrap;rounded=0;fontSize=40;fontStyle=1;shadow=1;" parent="1" vertex="1">
                    <mxGeometry x="195" y="100" width="60" height="30" as="geometry"/>
                </mxCell>
                <mxCell id="115" style="edgeStyle=none;html=1;exitX=1;exitY=0.5;exitDx=0;exitDy=0;entryX=0;entryY=0.5;entryDx=0;entryDy=0;fontSize=23;endArrow=open;endFill=0;endSize=13;shadow=1;" parent="1" source="111" target="87" edge="1">
                    <mxGeometry relative="1" as="geometry"/>
                </mxCell>
                <mxCell id="111" value="" style="rounded=0;whiteSpace=wrap;html=1;fontSize=21;verticalAlign=bottom;fillColor=#1ba1e2;strokeColor=#006EAF;fontColor=#ffffff;shadow=1;" parent="1" vertex="1">
                    <mxGeometry x="188.2500000000001" y="200" width="30" height="30" as="geometry"/>
                </mxCell>
                <mxCell id="116" style="edgeStyle=none;html=1;exitX=1;exitY=0.5;exitDx=0;exitDy=0;entryX=0;entryY=0.5;entryDx=0;entryDy=0;fontSize=23;endArrow=open;endFill=0;endSize=13;shadow=1;" parent="1" source="112" target="28" edge="1">
                    <mxGeometry relative="1" as="geometry"/>
                </mxCell>
                <mxCell id="112" value="h" style="rounded=0;whiteSpace=wrap;html=1;fontSize=21;verticalAlign=bottom;fillColor=#1ba1e2;strokeColor=#006EAF;fontColor=#ffffff;shadow=1;" parent="1" vertex="1">
                    <mxGeometry x="188.2500000000001" y="260" width="30" height="30" as="geometry"/>
                </mxCell>
                <mxCell id="118" style="edgeStyle=none;html=1;exitX=1;exitY=0.5;exitDx=0;exitDy=0;entryX=0;entryY=0.5;entryDx=0;entryDy=0;fontSize=23;endArrow=open;endFill=0;endSize=13;shadow=1;" parent="1" source="113" target="70" edge="1">
                    <mxGeometry relative="1" as="geometry"/>
                </mxCell>
                <mxCell id="113" value="" style="rounded=0;whiteSpace=wrap;html=1;fontSize=21;verticalAlign=bottom;fillColor=#1ba1e2;strokeColor=#006EAF;fontColor=#ffffff;shadow=1;" parent="1" vertex="1">
                    <mxGeometry x="188.2500000000001" y="380" width="30" height="30" as="geometry"/>
                </mxCell>
                <mxCell id="117" style="edgeStyle=none;html=1;exitX=1;exitY=0.5;exitDx=0;exitDy=0;entryX=0;entryY=0.5;entryDx=0;entryDy=0;fontSize=23;endArrow=open;endFill=0;endSize=13;shadow=1;" parent="1" source="114" target="108" edge="1">
                    <mxGeometry relative="1" as="geometry"/>
                </mxCell>
                <mxCell id="114" value="" style="rounded=0;whiteSpace=wrap;html=1;fontSize=21;verticalAlign=bottom;fillColor=#60a917;strokeColor=#2D7600;fontColor=#ffffff;shadow=1;" parent="1" vertex="1">
                    <mxGeometry x="188.25" y="320" width="30" height="30" as="geometry"/>
                </mxCell>
                <mxCell id="119" value="..." style="text;html=1;strokeColor=none;fillColor=none;align=center;verticalAlign=bottom;whiteSpace=wrap;rounded=0;fontSize=40;fontStyle=1;shadow=1;" parent="1" vertex="1">
                    <mxGeometry x="195" y="420" width="60" height="30" as="geometry"/>
                </mxCell>
                <mxCell id="147" value="" style="rounded=0;whiteSpace=wrap;html=1;fontSize=23;fillColor=#1ba1e2;strokeColor=#006EAF;fontColor=#ffffff;shadow=1;" parent="1" vertex="1">
                    <mxGeometry x="949" y="100" width="120" height="235" as="geometry"/>
                </mxCell>
                <mxCell id="149" value="" style="endArrow=none;html=1;fontSize=23;endSize=13;exitX=1;exitY=1;exitDx=0;exitDy=0;entryX=0;entryY=0;entryDx=0;entryDy=0;shadow=1;" parent="1" target="147" edge="1">
                    <mxGeometry width="50" height="50" relative="1" as="geometry">
                        <mxPoint x="850" y="192.5" as="sourcePoint"/>
                        <mxPoint x="959" y="170" as="targetPoint"/>
                    </mxGeometry>
                </mxCell>
                <mxCell id="150" value="" style="endArrow=none;html=1;fontSize=23;endSize=13;exitX=1;exitY=1;exitDx=0;exitDy=0;entryX=0;entryY=1;entryDx=0;entryDy=0;shadow=1;" parent="1" target="147" edge="1">
                    <mxGeometry width="50" height="50" relative="1" as="geometry">
                        <mxPoint x="850" y="222.5" as="sourcePoint"/>
                        <mxPoint x="969" y="126" as="targetPoint"/>
                    </mxGeometry>
                </mxCell>
                <mxCell id="152" value="" style="rounded=0;whiteSpace=wrap;html=1;fontSize=23;fillColor=#e51400;strokeColor=#B20000;fontColor=#ffffff;shadow=1;" parent="1" vertex="1">
                    <mxGeometry x="949" y="150" width="120" height="10" as="geometry"/>
                </mxCell>
                <mxCell id="155" value="f" style="rounded=0;whiteSpace=wrap;html=1;fontSize=23;fillColor=#1ba1e2;strokeColor=#006EAF;fontColor=#ffffff;shadow=1;" parent="1" vertex="1">
                    <mxGeometry x="730" y="190" width="120" height="30" as="geometry"/>
                </mxCell>
                <mxCell id="156" value="" style="rounded=0;whiteSpace=wrap;html=1;fontSize=23;fillColor=#60a917;strokeColor=#2D7600;fontColor=#ffffff;shadow=1;" parent="1" vertex="1">
                    <mxGeometry x="730" y="220" width="120" height="30" as="geometry"/>
                </mxCell>
                <mxCell id="158" value="" style="rounded=0;whiteSpace=wrap;html=1;fontSize=23;fillColor=#1ba1e2;strokeColor=#006EAF;fontColor=#ffffff;shadow=1;" parent="1" vertex="1">
                    <mxGeometry x="730" y="250" width="120" height="30" as="geometry"/>
                </mxCell>
                <mxCell id="159" value="" style="rounded=0;whiteSpace=wrap;html=1;fontSize=23;fillColor=#60a917;strokeColor=#2D7600;fontColor=#ffffff;shadow=1;" parent="1" vertex="1">
                    <mxGeometry x="730" y="280" width="120" height="30" as="geometry"/>
                </mxCell>
                <mxCell id="160" value="" style="rounded=0;whiteSpace=wrap;html=1;fontSize=23;fillColor=#60a917;strokeColor=#2D7600;fontColor=#ffffff;shadow=1;" parent="1" vertex="1">
                    <mxGeometry x="730" y="310" width="120" height="30" as="geometry"/>
                </mxCell>
                <mxCell id="163" value="" style="rounded=0;whiteSpace=wrap;html=1;fontSize=23;fillColor=#1ba1e2;strokeColor=#006EAF;fontColor=#ffffff;shadow=1;" parent="1" vertex="1">
                    <mxGeometry x="730" y="160" width="120" height="30" as="geometry"/>
                </mxCell>
                <mxCell id="165" value="..." style="text;html=1;strokeColor=none;fillColor=none;align=center;verticalAlign=bottom;whiteSpace=wrap;rounded=0;fontSize=40;fontStyle=1;shadow=1;" parent="1" vertex="1">
                    <mxGeometry x="759" y="130" width="60" height="30" as="geometry"/>
                </mxCell>
                <mxCell id="166" value="..." style="text;html=1;strokeColor=none;fillColor=none;align=center;verticalAlign=bottom;whiteSpace=wrap;rounded=0;fontSize=40;fontStyle=1;shadow=1;" parent="1" vertex="1">
                    <mxGeometry x="760" y="340" width="60" height="30" as="geometry"/>
                </mxCell>
                <mxCell id="167" value="" style="endArrow=none;html=1;fontSize=23;endSize=13;entryX=1;entryY=0.25;entryDx=0;entryDy=0;exitX=0;exitY=0.25;exitDx=0;exitDy=0;fillColor=#e51400;strokeColor=#B20000;shadow=1;" parent="1" source="155" target="155" edge="1">
                    <mxGeometry width="50" height="50" relative="1" as="geometry">
                        <mxPoint x="699" y="220" as="sourcePoint"/>
                        <mxPoint x="749" y="170" as="targetPoint"/>
                    </mxGeometry>
                </mxCell>
                <mxCell id="168" value="Hash Table" style="text;html=1;strokeColor=none;fillColor=none;align=center;verticalAlign=middle;whiteSpace=wrap;rounded=0;fontSize=23;shadow=1;" parent="1" vertex="1">
                    <mxGeometry x="328" y="150" width="142" height="20" as="geometry"/>
                </mxCell>
                <mxCell id="169" value="Frames in physical Memory" style="text;html=1;strokeColor=none;fillColor=none;align=center;verticalAlign=middle;whiteSpace=wrap;rounded=0;fontSize=23;shadow=1;" parent="1" vertex="1">
                    <mxGeometry x="690" y="380" width="200" height="50" as="geometry"/>
                </mxCell>
                <mxCell id="170" value="f" style="rounded=0;whiteSpace=wrap;html=1;fontSize=21;verticalAlign=middle;shadow=1;" vertex="1" parent="1">
                    <mxGeometry x="399" y="80" width="150" height="35" as="geometry"/>
                </mxCell>
                <mxCell id="171" value="d" style="rounded=0;whiteSpace=wrap;html=1;fontSize=21;verticalAlign=middle;shadow=1;" vertex="1" parent="1">
                    <mxGeometry x="549" y="80" width="152" height="35" as="geometry"/>
                </mxCell>
                <mxCell id="173" style="edgeStyle=orthogonalEdgeStyle;html=1;entryX=0;entryY=0.75;entryDx=0;entryDy=0;fontSize=23;endArrow=open;endFill=0;endSize=13;shadow=1;exitX=1;exitY=0.5;exitDx=0;exitDy=0;" edge="1" parent="1" source="171" target="152">
                    <mxGeometry relative="1" as="geometry">
                        <mxPoint x="484" y="125" as="targetPoint"/>
                        <Array as="points">
                            <mxPoint x="910" y="98"/>
                            <mxPoint x="910" y="158"/>
                        </Array>
                        <mxPoint x="701" y="97" as="sourcePoint"/>
                    </mxGeometry>
                </mxCell>
            </root>
        </mxGraphModel>
    </diagram>
</mxfile>